<?xml version="1.0" encoding="iso-8859-1"?>
<!-- Generator: Adobe Illustrator 16.0.0, SVG Export Plug-In . SVG Version: 6.00 Build 0)  -->
<!DOCTYPE svg PUBLIC "-//W3C//DTD SVG 1.1//EN" "http://www.w3.org/Graphics/SVG/1.1/DTD/svg11.dtd">
<svg version="1.1" id="Capa_1" xmlns="http://www.w3.org/2000/svg" xmlns:xlink="http://www.w3.org/1999/xlink" x="0px" y="0px"
	 width="683.322px" height="683.322px" viewBox="0 0 683.322 683.322" style="enable-background:new 0 0 683.322 683.322;"
	 xml:space="preserve">
<g>
	<g id="Anchor">
		<g>
			<path d="M639.931,395.558c-6.086-7.11-14.969-11.188-24.3-11.188h-103.14c-17.681,0-32.03,14.328-32.03,32.03
				s14.35,32.03,32.03,32.03h62.717c-28.871,89.494-108.136,155.904-201.517,168.503V230.365
				c49.285-13.966,85.416-59.171,85.416-112.919C459.108,52.573,406.513,0,341.661,0c-64.873,0-117.446,52.573-117.446,117.446
				c0,53.748,36.13,98.953,85.415,112.919v386.567c-93.359-12.599-172.646-79.009-201.516-168.503h62.695
				c17.702,0,32.03-14.328,32.03-32.03s-14.328-32.03-32.03-32.03H67.692c-9.353,0-18.236,4.078-24.322,11.188
				c-6.085,7.111-8.755,16.507-7.324,25.753c23.212,149.37,154.602,262.012,305.616,262.012s282.405-112.642,305.616-262.012
				C648.708,412.064,646.039,402.669,639.931,395.558z M288.277,117.446c0-29.426,23.958-53.385,53.384-53.385
				c29.448,0,53.385,23.959,53.385,53.385c0,29.425-23.938,53.384-53.385,53.384C312.214,170.831,288.277,146.872,288.277,117.446z"
				/>
		</g>
	</g>
</g>
<g>
</g>
<g>
</g>
<g>
</g>
<g>
</g>
<g>
</g>
<g>
</g>
<g>
</g>
<g>
</g>
<g>
</g>
<g>
</g>
<g>
</g>
<g>
</g>
<g>
</g>
<g>
</g>
<g>
</g>
</svg>
