<?xml version="1.0" encoding="iso-8859-1"?>
<!-- Generator: Adobe Illustrator 16.0.0, SVG Export Plug-In . SVG Version: 6.00 Build 0)  -->
<!DOCTYPE svg PUBLIC "-//W3C//DTD SVG 1.1//EN" "http://www.w3.org/Graphics/SVG/1.1/DTD/svg11.dtd">
<svg version="1.1" id="Capa_1" xmlns="http://www.w3.org/2000/svg" xmlns:xlink="http://www.w3.org/1999/xlink" x="0px" y="0px"
	 width="631.742px" height="631.742px" viewBox="0 0 631.742 631.742" style="enable-background:new 0 0 631.742 631.742;"
	 xml:space="preserve">
<g>
	<g id="Umbrella">
		<g>
			<path d="M345.484,40.984V29.613C345.484,13.267,332.218,0,315.871,0c-16.346,0-29.613,13.267-29.613,29.613v11.371
				C131.363,55.929,9.871,186.739,9.871,345.484c0,14.115,9.97,26.276,23.809,29.04c13.839,2.725,27.698-4.58,33.147-17.649
				c10.364-24.914,34.509-41.004,61.496-41.004s51.131,16.09,61.496,41.004c4.402,10.562,14.491,17.649,25.941,18.183
				c11.904,0.632,22.17-5.528,27.52-15.636c9.457-17.768,24.875-30.936,42.979-37.904v221.386c0,16.326-13.287,29.613-29.613,29.613
				c-16.327,0-29.613-13.287-29.613-29.613c0-16.347-13.267-29.613-29.613-29.613s-29.613,13.267-29.613,29.613
				c0,48.979,39.859,88.839,88.839,88.839c48.979,0,88.839-39.84,88.839-88.839V321.518c18.103,6.969,33.502,20.137,42.978,37.904
				c5.351,10.088,15.616,16.011,27.521,15.636c11.431-0.533,21.538-7.62,25.94-18.183c10.365-24.914,34.51-41.004,61.497-41.004
				c26.986,0,51.131,16.09,61.496,41.004c4.679,11.214,15.557,18.222,27.322,18.222c1.935,0,3.869-0.197,5.824-0.572
				c13.839-2.764,23.809-14.925,23.809-29.04C621.871,186.739,500.379,55.929,345.484,40.984z M503.42,256.646
				c-34.943,0-67.34,14.293-90.576,38.398c-25.843-24.322-60.292-38.398-96.973-38.398s-71.13,14.076-96.972,38.398
				c-23.236-24.105-55.653-38.398-90.576-38.398c-16.011,0-31.508,3-45.821,8.587C115.866,168.418,207.883,98.71,315.871,98.71
				s200.006,69.708,233.369,166.523C534.928,259.646,519.431,256.646,503.42,256.646z"/>
		</g>
	</g>
</g>
<g>
</g>
<g>
</g>
<g>
</g>
<g>
</g>
<g>
</g>
<g>
</g>
<g>
</g>
<g>
</g>
<g>
</g>
<g>
</g>
<g>
</g>
<g>
</g>
<g>
</g>
<g>
</g>
<g>
</g>
</svg>
