<?xml version="1.0" encoding="iso-8859-1"?>
<!-- Generator: Adobe Illustrator 16.0.0, SVG Export Plug-In . SVG Version: 6.00 Build 0)  -->
<!DOCTYPE svg PUBLIC "-//W3C//DTD SVG 1.1//EN" "http://www.w3.org/Graphics/SVG/1.1/DTD/svg11.dtd">
<svg version="1.1" id="Capa_1" xmlns="http://www.w3.org/2000/svg" xmlns:xlink="http://www.w3.org/1999/xlink" x="0px" y="0px"
	 width="612px" height="612px" viewBox="0 0 612 612" style="enable-background:new 0 0 612 612;" xml:space="preserve">
<g>
	<g id="Cloud_x5F_Sun_x5F_Lightning">
		<g>
			<path d="M230.47,142.715c4.045,4.045,9.643,6.553,15.822,6.553c12.36,0,22.391-10.031,22.391-22.391
				c0-6.18-2.508-11.777-6.553-15.837l-29.854-29.854c-4.06-4.045-9.658-6.553-15.837-6.553c-12.359,0-22.39,10.031-22.39,22.39
				c0,6.18,2.508,11.777,6.553,15.822L230.47,142.715z M365.707,89.561c12.359,0,22.391-10.031,22.391-22.39V22.39
				c0-12.359-10.031-22.39-22.391-22.39s-22.39,10.031-22.39,22.39v44.781C343.317,79.53,353.348,89.561,365.707,89.561z
				 M485.122,149.269c6.18,0,11.777-2.508,15.837-6.553l29.854-29.854c4.046-4.06,6.554-9.658,6.554-15.837
				c0-12.359-10.031-22.39-22.391-22.39c-6.18,0-11.777,2.507-15.837,6.568l-29.854,29.854c-4.045,4.045-6.553,9.643-6.553,15.822
				C462.731,139.237,472.763,149.269,485.122,149.269z M452.716,338.331c24.479-23.106,39.869-55.707,39.869-92.039
				c0-70.051-56.812-126.878-126.878-126.878c-42.108,0-79.336,20.584-102.413,52.184c-14.808-4.657-30.48-7.403-46.855-7.403
				c-83.307,0-151.239,65.036-156.254,147.089C24.435,329.973,0,367.334,0,410.488c0,61.842,50.109,111.951,111.951,111.951h29.854
				c12.359,0,22.391-10.031,22.391-22.391s-10.031-22.391-22.391-22.391h-29.854c-37.033,0-67.171-30.122-67.171-67.17
				c0-25.062,13.853-47.871,36.153-59.514l22.405-11.718l1.552-25.241c3.598-58.901,52.603-105.04,111.548-105.04
				c34.436,0,66.469,15.613,87.919,42.825l12.897,16.375l20.838,0.672c36.406,1.179,64.932,30.615,64.932,67.006v29.839
				l27.555,11.494c19.524,8.149,32.152,27.077,32.152,48.229c0,28.809-23.435,52.243-52.243,52.243h-44.781
				c-12.359,0-22.39,10.031-22.39,22.391s10.03,22.391,22.39,22.391h44.781c53.587,0,97.023-43.438,97.023-97.024
				C507.512,387.022,485.077,354.064,452.716,338.331z M436.55,287.207c-17.613-36.347-54.244-61.737-97.024-63.125
				c-9.852-12.494-21.658-23.331-34.794-32.346c15.031-16.808,36.705-27.54,60.976-27.54c45.273,0,82.098,36.824,82.098,82.097
				C447.805,261.25,443.596,275.146,436.55,287.207z M589.609,223.902h-44.78c-12.359,0-22.39,10.031-22.39,22.39
				c0,12.36,10.03,22.391,22.39,22.391h44.78c12.359,0,22.391-10.031,22.391-22.391C612,233.933,601.969,223.902,589.609,223.902z
				 M306,492.585h-37.317v-67.17c0-4.12-3.344-7.464-7.463-7.464c-2.792,0-5.209,1.522-6.493,3.762L195.019,526.2
				c-0.627,1.09-0.97,2.358-0.97,3.702c0,4.12,3.344,7.464,7.463,7.464h37.317v67.17c0,4.12,3.344,7.464,7.463,7.464
				c2.777,0,5.209-1.522,6.493-3.762l59.708-104.487c0.627-1.09,0.971-2.358,0.971-3.702
				C313.464,495.929,310.12,492.585,306,492.585z"/>
		</g>
	</g>
</g>
<g>
</g>
<g>
</g>
<g>
</g>
<g>
</g>
<g>
</g>
<g>
</g>
<g>
</g>
<g>
</g>
<g>
</g>
<g>
</g>
<g>
</g>
<g>
</g>
<g>
</g>
<g>
</g>
<g>
</g>
</svg>
