<?xml version="1.0" encoding="iso-8859-1"?>
<!-- Generator: Adobe Illustrator 16.0.0, SVG Export Plug-In . SVG Version: 6.00 Build 0)  -->
<!DOCTYPE svg PUBLIC "-//W3C//DTD SVG 1.1//EN" "http://www.w3.org/Graphics/SVG/1.1/DTD/svg11.dtd">
<svg version="1.1" id="Capa_1" xmlns="http://www.w3.org/2000/svg" xmlns:xlink="http://www.w3.org/1999/xlink" x="0px" y="0px"
	 width="792px" height="792px" viewBox="0 0 792 792" style="enable-background:new 0 0 792 792;" xml:space="preserve">
<g>
	<g id="Drop">
		<g>
			<path d="M635.901,390.951L439.634,26.086C431.269,10.568,414.859,0,396,0s-35.269,10.568-43.634,26.086L156.098,390.951
				c-20.642,38.362-32.348,82.194-32.348,128.799C123.75,670.106,245.644,792,396,792s272.25-121.894,272.25-272.25
				C668.25,473.146,656.543,429.313,635.901,390.951z M396,717.75c-109.172,0-198-88.828-198-198
				c0-33.189,7.895-64.672,23.463-93.629L396,101.698l174.537,324.423C586.104,455.078,594,486.561,594,519.75
				C594,628.922,505.172,717.75,396,717.75z"/>
		</g>
	</g>
</g>
<g>
</g>
<g>
</g>
<g>
</g>
<g>
</g>
<g>
</g>
<g>
</g>
<g>
</g>
<g>
</g>
<g>
</g>
<g>
</g>
<g>
</g>
<g>
</g>
<g>
</g>
<g>
</g>
<g>
</g>
</svg>
